<?xml version="1.0" encoding="utf-8"?>
<!-- Generator: Adobe Illustrator 19.0.0, SVG Export Plug-In . SVG Version: 6.00 Build 0)  -->
<svg version="1.1" id="Ebene_1" xmlns="http://www.w3.org/2000/svg" xmlns:xlink="http://www.w3.org/1999/xlink" x="0px" y="0px"
	 width="992.126px" height="708.661px" viewBox="0 0 992.126 708.661" style="enable-background:new 0 0 992.126 708.661;"
	 xml:space="preserve">
<style type="text/css">
	.st0{fill:#FFFFFF;stroke:#000000;stroke-miterlimit:10;}
</style>
<g id="XMLID_99_">
	<path id="XMLID_106_" class="st0" d="M156.561,219.333c20.648-1.996,50.601-10.382,66.87-11.507
		c16.269-1.125,45.311,1.687,47.107,37.892s-32.196,40.742-43.621,39.426s-49.751-19.086-63.913-27.981
		c-14.162-8.895-24.479,3.931-23.709,13.001c0.77,9.07,0.499,32.089-0.706,36.69c-1.204,4.601-14.718,15.432-22.796,3.749
		s-13.847-39.369-14.749-51.618c-0.902-12.248-4.26-36.433,3.73-40.21C119.96,211.593,138.444,221.084,156.561,219.333z"/>
	<circle id="XMLID_105_" class="st0" cx="157.521" cy="236.045" r="4.252"/>
	<circle id="XMLID_100_" class="st0" cx="232.773" cy="244.917" r="4.252"/>
</g>
<g id="XMLID_27_">
	<path id="XMLID_53_" class="st0" d="M860.614,251.129c-16.672-12.343-38.03-34.957-51.396-44.299s-39.71-21.887-59.894,8.224
		c-20.184,30.111,6.619,51.504,17.089,56.26c10.471,4.755,52.476,9.259,69.197,8.927c16.721-0.332,18.96,15.976,13.629,23.354
		c-5.331,7.378-16.952,27.25-18.289,31.814c-1.337,4.564,4.669,20.807,17.611,14.952c12.941-5.855,32.143-26.617,39.224-36.652
		c7.081-10.035,22.413-29.037,17.51-36.39C895.974,263.343,875.242,261.96,860.614,251.129z"/>
	<circle id="XMLID_52_" class="st0" cx="851.184" cy="264.961" r="4.252"/>
	<circle id="XMLID_51_" class="st0" cx="782.109" cy="233.814" r="4.252"/>
</g>
<g id="XMLID_2_">
	<path id="XMLID_316_" class="st0" d="M692.359,434.801c-5.48-1.769-10.807-12.314-12.244-21.327
		c-1.437-9.013-9.628-16.026-15.217-20.249c-5.556-4.076-9.803-4.912-21.147-5.498c-11.344-0.586-18.347,7.224-19.978,10.885
		c-1.632,3.661-2.484,11.969-5.498,15.217c-3.014,3.247-13.144,13.369-21.696,11.23c-8.553-2.139-15.675-11.363-28.24-34.789
		s-42.893-46.021-73.609-49.453c-30.716-3.431-87.803,16.762-117.342,68.511c-24.292,42.557-37.884,66.521-62.912,73.09
		c-24.202,6.352-58.871-2.645-78.845-8.849s-33.03-14.589-35.295-10.985c-6.874,10.936,4.248,27.203,46.46,41.741
		c43.057,14.828,78.294,19.646,101,13.597c23.859-6.356,46.972-37.814,50.759-43.039c3.788-5.225,11.325-8.98,16.896-6.734
		c2.8,1.129,8.625,2.289,11.482,7.464c2.858,5.178,9.763,7.302,17.428,2.833c4.167-2.429,11.813,4.498,22.117,7.408
		c12.049,3.402,24.078,5.57,25.924,7.133c0.951,0.805,3.655,4.919,4.59,5.655c8.593,6.761,18.851,4.392,27.629,0.858
		c11.464-4.616,22.008-0.382,24.581,0.19c5.553,1.234,31.341,8.89,40.901,0.341c9.139-8.172,11.24-8.577,25.891-20.385
		c0.774-0.621,1.562-1.261,2.373-1.935c15.698-13.04,27.054-31.935,27.054-31.935c1.744-5.488,16.116,2.033,21.685,4.34
		c5.937,2.459,15.238,0.086,19.485,0.058C692.706,450.135,699.062,436.965,692.359,434.801z"/>
	<circle id="XMLID_317_" class="st0" cx="495.978" cy="425.473" r="4.252"/>
</g>
<path id="XMLID_90_" class="st0" d="M902.239,431.555c-1.55-6.832-10.202-10.841-10.242-18.566
	c-0.015-2.773,4.426-4.866,7.736-8.587c3.837-4.314,6.504-10.203,4.479-12.181c-1.725-1.684-10.369-2.056-16.956,0.784
	c-4.268,1.84-7.519,5.442-11.44,7.679c-4.381,2.5-7.454,5.6-8.918,7.035c-4.797,4.699-10.54,13.951-14.852,14.968
	s-18.363,3.778-24.274-2.764c-5.91-6.541-6.685-18.17-4.066-44.624c2.619-26.454-9.976-62.115-33.57-82.078
	c-23.594-19.964-82.25-35.003-135.613-8.49c-43.884,21.804-68.522,34.13-92.966,25.64c-23.636-8.21-47.413-34.998-60.541-51.279
	c-13.129-16.281-19.299-30.518-23.188-28.788c-11.802,5.251-11.63,24.956,15.323,60.548c27.492,36.304,54.068,59.938,76.293,67.566
	c23.354,8.016,60.074-5.228,66.131-7.457c6.057-2.228,14.408-1.146,17.782,3.823c1.696,2.497,5.887,6.706,5.375,12.596
	c-0.512,5.893,4.038,11.503,12.893,12.063c4.814,0.305,7.303,10.317,14.238,18.474c8.11,9.539,16.89,18.041,17.553,20.368
	c0.341,1.198,0.294,6.121,0.661,7.253c3.369,10.402,13.206,14.151,22.464,16.107c12.092,2.554,18.488,11.945,20.306,13.854
	c3.924,4.119-5.172,15.149-13.462,20.074c-7.303,4.338-15.772,4.785-23.858,2.02c-10.951-3.746-12.125,10.427-9.754,14.699
	c6.319,11.389,18.257,13.625,26.763,14.194c14.822,0.992,31.503-19.225,43.18-24.747c11.083-5.241,25.018-4.026,43.763-5.668
	c0.989-0.084,2-0.177,3.048-0.284c20.301-2.082,40.259-11.444,40.259-11.444c4.506-3.585,12.25,10.667,15.589,15.686
	c3.56,5.35,12.605,8.561,16.148,10.905c5.101,3.374,17.718-4.02,13.357-9.552c-3.565-4.522-2.113-16.247,1.715-24.532
	S904.527,438.176,902.239,431.555z M747.202,367.014c-1.547,1.767-4.233,1.946-6,0.399c-1.767-1.547-1.946-4.233-0.4-6
	c1.547-1.767,4.233-1.946,6-0.4S748.748,365.247,747.202,367.014z"/>
<g id="XMLID_29_">
	<path id="XMLID_98_" class="st0" d="M90.749,463.677c5.678-0.96,15.271,5.935,20.706,13.266s15.939,9.772,22.847,10.938
		c6.738,1.915,14.405-3.756,21.204-0.088c2.44,1.316,2.149,6.217,3.827,10.906c1.946,5.436,5.836,10.599,8.543,9.77
		c2.305-0.706,6.775-8.114,7.441-15.257c0.431-4.628-1.171-9.208-1.254-13.721c-0.094-5.043-1.341-9.227-1.898-11.199
		c-1.824-6.463-7.19-15.938-6.015-20.21c1.175-4.272,5.488-17.926,14.062-19.977c8.574-2.051,19.15,2.844,41.111,17.825
		c21.96,14.98,59.294,21.024,88.125,9.889c28.831-11.135,70.15-55.401,72.465-114.942c1.904-48.965,2.898-76.497,22.068-93.878
		c18.536-16.807,53.444-24.83,74.026-28.547c20.582-3.717,36.034-2.305,36.38-6.548c1.049-12.874-16.326-22.171-60.482-15.581
		c-45.04,6.722-78.522,18.714-95.871,34.562c-18.23,16.652-24.212,55.227-25.16,61.61c-0.948,6.383-5.901,13.194-11.88,13.773
		c-3.005,0.291-8.707,1.951-13.631-1.321c-4.926-3.274-12.031-1.971-16.768,5.532c-2.575,4.078-12.555,1.463-23.039,3.638
		c-12.259,2.544-23.93,6.174-26.29,5.64c-1.215-0.275-5.513-2.676-6.682-2.897c-10.744-2.031-18.75,4.805-24.905,11.993
		c-8.039,9.387-19.346,10.498-21.893,11.179c-5.496,1.469-10.815-11.801-11.163-21.438c-0.306-8.489,3.362-16.135,9.665-21.905
		c8.538-7.815-3.337-15.639-8.223-15.607c-13.025,0.086-20.71,9.49-25.287,16.682c-7.976,12.532,1.769,36.863,1.017,49.758
		c-0.713,12.239-8.46,23.886-16.006,41.123c-0.4,0.908-0.803,1.84-1.212,2.811c-7.906,18.814-9.257,40.817-9.257,40.817
		c0.986,5.673-15.234,5.636-21.24,6.161c-6.402,0.559-13.557,6.958-17.311,8.943C83.363,450.235,83.804,464.852,90.749,463.677z"/>
	<circle id="XMLID_97_" class="st0" cx="269.26" cy="381.299" r="4.252"/>
</g>
</svg>
